<svg width="7" height="12" viewBox="0 0 7 12" fill="none" xmlns="http://www.w3.org/2000/svg">
<path d="M0.929775 0.14258C0.712146 -0.0539692 0.371776 -0.0465513 0.164611 0.160141C0.059289 0.256729 0 0.391135 0 0.530952C0 0.670768 0.0592872 0.805174 0.164611 0.901763L5.64836 6.00061L0.164611 11.0995C0.059289 11.196 0 11.3304 0 11.4703C0 11.6101 0.0592872 11.7445 0.164611 11.8411C0.261563 11.9458 0.401756 12.0039 0.546836 11.9998C0.68773 11.9991 0.823746 11.9485 0.929757 11.8586L6.8333 6.38889H6.8326C6.94001 6.28623 7 6.14642 7 6.00051C7 5.85461 6.94001 5.71481 6.8326 5.61213L0.929775 0.14258Z" fill="black" fill-opacity="0.4"/>
</svg>
